<svg width="20" height="20" viewBox="0 0 20 20" fill="none" xmlns="http://www.w3.org/2000/svg">
<g clip-path="url(#clip0_6_79)">
<path d="M9.98952 19.973C15.4995 19.973 19.9662 15.5056 19.9662 9.995C19.9662 4.48435 15.4995 0.0170898 9.98952 0.0170898C4.47954 0.0170898 0.0128174 4.48435 0.0128174 9.995C0.0128174 15.5056 4.47954 19.973 9.98952 19.973Z" fill="#E5FFE7"/>
<path d="M14.4008 12.2627C14.4008 12.2627 11.6731 20.5367 1.70044 15.5807C1.70044 15.5807 4.41809 20.1087 10.2414 19.9767L18.1424 12.9027L14.4008 12.2607V12.2627Z" fill="#8FF793"/>
<path d="M18.0329 4.0828C16.425 2.10282 13.5254 1.63282 11.3617 3.07681C9.068 4.6088 8.45408 7.71077 9.98588 10.0028C11.7117 12.5828 10.7158 16.1887 7.66618 17.4267C5.81842 18.1787 3.6727 17.7247 2.28488 16.2967C1.99293 15.9967 1.74695 15.6747 1.54698 15.3367C-1.33864 10.7768 -0.0808131 4.7188 4.4326 1.70282C8.94601 -1.31515 14.8832 -0.199161 18.0309 4.0828H18.0329Z" fill="#38CF6F"/>
<path d="M19.7923 8.05079C19.6484 7.3588 19.4404 6.70481 19.1804 6.08681C18.5385 4.72082 16.8128 4.10483 15.373 4.87682C14.4091 5.39482 13.8331 6.44681 13.9631 7.5328C13.9771 7.6388 14.0011 7.7608 14.0231 7.8608C14.2311 8.47079 14.3811 9.11878 14.4611 9.80078C14.889 13.4128 13.0412 16.9608 9.83765 18.6828C9.00577 19.1308 8.14988 19.4408 7.29199 19.6168C9.94964 20.3648 12.9252 20.0648 15.5589 18.2948C18.9024 16.0468 20.6183 11.9928 19.7963 8.04879H19.7943L19.7923 8.05079Z" fill="#38CF6F"/>
</g>
<defs>
<clipPath id="clip0_6_79">
<rect width="20" height="20" fill="white"/>
</clipPath>
</defs>
</svg>
